<?xml version="1.0" ?><svg id="Layer_1" style="enable-background:new 0 0 128 128;" version="1.1" viewBox="0 0 128 128" xml:space="preserve" xmlns="http://www.w3.org/2000/svg" xmlns:xlink="http://www.w3.org/1999/xlink"><style type="text/css">
	.st0{fill:#71C2FF;}
	.st1{fill:#FFFFFF;}
	.st2{fill:#444B54;}
	.st3{fill:#FCFCFC;}
	.st4{fill:none;stroke:#444B54;stroke-width:6;stroke-linecap:round;stroke-linejoin:round;stroke-miterlimit:10;}
	.st5{fill:none;stroke:#71C2FF;stroke-width:6;stroke-linecap:round;stroke-linejoin:round;stroke-miterlimit:10;}
</style><g><path class="st1" d="M124,4v78c0,5.5-4.5,10-10,10H14C8.5,92,4,87.5,4,82V4H124z"/><path class="st2" d="M124,1H4C2.3,1,1,2.3,1,4v70c0,1.7,1.3,3,3,3s3-1.3,3-3V7h114v75c0,3.9-3.1,7-7,7H34c-1.7,0-3,1.3-3,3   s1.3,3,3,3h80c7.2,0,13-5.8,13-13V4C127,2.3,125.7,1,124,1z"/><path class="st0" d="M12,97c-0.6,0-1.2-0.2-1.7-0.5c-1.4-0.9-1.7-2.8-0.8-4.2l31-45c0.5-0.7,1.2-1.1,2-1.3c0.8-0.1,1.6,0.1,2.3,0.5   l26.5,19.2l26.3-39.4c0.9-1.4,2.8-1.8,4.2-0.8c1.4,0.9,1.8,2.8,0.8,4.2l-28,42c-0.5,0.7-1.2,1.1-2,1.3c-0.8,0.1-1.6,0-2.3-0.5   L43.7,53.2L14.5,95.7C13.9,96.5,13,97,12,97z"/><path class="st1" d="M4,94c0-4.4,3.6-8,8-8s8,3.6,8,8s-3.6,8-8,8S4,98.4,4,94"/><path class="st0" d="M12,105c-6.1,0-11-4.9-11-11s4.9-11,11-11s11,4.9,11,11S18.1,105,12,105z M12,89c-2.8,0-5,2.2-5,5s2.2,5,5,5   s5-2.2,5-5S14.8,89,12,89z"/><circle class="st1" cx="43" cy="49" r="8"/><path class="st0" d="M43,60c-6.1,0-11-4.9-11-11s4.9-11,11-11s11,4.9,11,11S49.1,60,43,60z M43,44c-2.8,0-5,2.2-5,5s2.2,5,5,5   s5-2.2,5-5S45.8,44,43,44z"/><circle class="st1" cx="72" cy="70" r="8"/><path class="st0" d="M72,81c-6.1,0-11-4.9-11-11s4.9-11,11-11s11,4.9,11,11S78.1,81,72,81z M72,65c-2.8,0-5,2.2-5,5s2.2,5,5,5   s5-2.2,5-5S74.8,65,72,65z"/><circle class="st1" cx="100" cy="28" r="8"/><path class="st0" d="M100,39c-6.1,0-11-4.9-11-11s4.9-11,11-11s11,4.9,11,11S106.1,39,100,39z M100,23c-2.8,0-5,2.2-5,5s2.2,5,5,5   s5-2.2,5-5S102.8,23,100,23z"/><path class="st2" d="M86.1,121.9l-20-20c-1.2-1.2-3.1-1.2-4.2,0l-20,20c-1.2,1.2-1.2,3.1,0,4.2c0.6,0.6,1.4,0.9,2.1,0.9   s1.5-0.3,2.1-0.9L61,111.2V124c0,1.7,1.3,3,3,3s3-1.3,3-3v-12.8l14.9,14.9c0.6,0.6,1.4,0.9,2.1,0.9s1.5-0.3,2.1-0.9   C87.3,124.9,87.3,123.1,86.1,121.9z"/></g></svg>