<?xml version="1.0" ?><svg style="enable-background:new 0 0 512 512;" version="1.1" viewBox="0 0 512 512" xml:space="preserve" xmlns="http://www.w3.org/2000/svg" xmlns:xlink="http://www.w3.org/1999/xlink"><style type="text/css">
	.st0{fill:#FFFFFF;}
	.st1{fill:#3E4D6C;}
	.st2{fill:#DDEEFF;}
	.st3{fill:#76BDFF;}
</style><g id="_x35_0_hd"/><g id="_x34_9_results"/><g id="_x34_8_shortcut"/><g id="_x34_7_master"/><g id="_x34_6_get"/><g id="_x34_5_machine_learning"/><g id="_x34_4_evaluation"/><g id="_x34_3_agile"/><g id="_x34_2_anonymous"/><g id="_x34_1_big_data"/><g id="_x34_0_hamburger_menu"/><g id="_x33_9_consumer"/><g id="_x33_8_apply"/><g id="_x33_7_supplier"/><g id="_x33_6_chatbot"/><g id="_x33_5_equal"/><g id="_x33_4_ask"/><g id="_x33_3_agent"/><g id="_x33_2_kpi"/><g id="_x33_1_previous"/><g id="_x33_0_objective"/><g id="_x32_9_leave"/><g id="_x32_8_rule"/><g id="_x32_7_tip"/><g id="_x32_6_fortnite"/><g id="_x32_5_answer"/><g id="_x32_4_contact_us"/><g id="_x32_3_join"/><g id="_x32_2_positive"/><g id="_x32_1_banana"/><g id="_x32_0_insert"/><g id="_x31_9_license"/><g id="_x31_8_playstation"/><g id="_x31_7_rice"/><g id="_x31_6_ico"/><g id="_x31_5_model"/><g id="_x31_4_collapse"/><g id="_x31_3_terminal"/><g id="customers"><g><g><g><ellipse class="st2" cx="145.7" cy="143.7" rx="67.8" ry="73.7"/><path class="st3" d="M145.7,233.4c-46.2,0-83.8-40.2-83.8-89.7S99.5,54,145.7,54s83.8,40.2,83.8,89.7S191.9,233.4,145.7,233.4z       M145.7,86c-28.5,0-51.8,25.9-51.8,57.7s23.2,57.7,51.8,57.7s51.8-25.9,51.8-57.7S174.2,86,145.7,86z"/></g><g><g><path class="st0" d="M180.3,265L180.3,265l-34.6,44.1L111.1,265h0C70.7,265,38,298.4,38,339.6V404c0,7.7,6.3,14,14,14h25.8       c7.7,0,14-6.3,14-14v14h107.7v-14c0,7.7,6.3,14,14,14h25.8c7.7,0,14-6.3,14-14v-64.4C253.4,298.4,220.7,265,180.3,265z"/><path class="st1" d="M239.4,434h-25.8c-2.8,0-5.5-0.4-8.1-1.1c-1.8,0.7-3.8,1.1-5.9,1.1H91.9c-2.1,0-4.1-0.4-5.9-1.1       c-2.6,0.7-5.3,1.1-8.1,1.1H52c-16.5,0-30-13.5-30-30v-64.4c0-50,40-90.6,89.1-90.6c4.9,0,9.6,2.3,12.6,6.1l22,28.1l22-28.1       c3-3.9,7.7-6.1,12.6-6.1c49.1,0,89.1,40.6,89.1,90.6V404C269.4,420.5,255.9,434,239.4,434z M215.4,402h22v-62.4       c0-29.7-21.7-54.4-49.7-58.1L158.3,319c-3,3.9-7.7,6.1-12.6,6.1s-9.6-2.3-12.6-6.1l-29.4-37.5c-28,3.7-49.7,28.4-49.7,58.1V402       h22c1-7.9,7.7-14,15.9-14s14.9,6.1,15.9,14h75.9c1-7.9,7.7-14,15.9-14S214.4,394.1,215.4,402z"/></g><g><rect class="st1" height="38.3" width="32" x="75.9" y="365.7"/></g><g><rect class="st1" height="38.3" width="32" x="183.5" y="365.7"/></g></g></g><g><g><ellipse class="st2" cx="359.8" cy="151.6" rx="71.8" ry="77.6"/><path class="st3" d="M359.8,245.1c-48.4,0-87.8-42-87.8-93.6C272,100,311.4,58,359.8,58s87.8,42,87.8,93.6      C447.7,203.1,408.3,245.1,359.8,245.1z M359.8,90c-30.8,0-55.8,27.6-55.8,61.6c0,33.9,25.1,61.6,55.8,61.6s55.8-27.6,55.8-61.6      C415.7,117.6,390.6,90,359.8,90z"/></g><g><path class="st0" d="M396.5,270.4L396.5,270.4l-36.7,46.4l-36.7-46.4h0c-42.8,0-77.5,35.1-77.5,78.5V428c0,7.7,6.3,14,14,14      h29.1c7.7,0,14-6.3,14-14v14h114.1v-14c0,7.7,6.3,14,14,14H460c7.7,0,14-6.3,14-14v-79.1C474,305.6,439.3,270.4,396.5,270.4z"/><path class="st1" d="M460,458h-29.1c-2.8,0-5.5-0.4-8.1-1.1c-1.8,0.7-3.8,1.1-5.9,1.1H302.8c-2.1,0-4.1-0.4-5.9-1.1      c-2.6,0.7-5.3,1.1-8.1,1.1h-29.1c-16.5,0-30-13.5-30-30v-79.1c0-52.1,41.9-94.5,93.5-94.5c4.9,0,9.5,2.2,12.6,6.1l24.1,30.5      l24.1-30.5c3-3.8,7.7-6.1,12.6-6.1c51.5,0,93.5,42.4,93.5,94.5V428C490,444.5,476.5,458,460,458z M432.8,426H458v-77.1      c0-31.9-23.7-58.3-54.1-62l-31.5,39.9c-3,3.8-7.7,6.1-12.6,6.1s-9.5-2.2-12.6-6.1l-31.5-39.9c-30.4,3.7-54.1,30.1-54.1,62V426      h25.2c1-7.9,7.7-14,15.9-14s14.9,6.1,15.9,14H401c1-7.9,7.7-14,15.9-14S431.8,418.1,432.8,426z"/></g><g><rect class="st1" height="47.5" width="32" x="400.9" y="380.5"/></g><g><rect class="st1" height="47.5" width="32" x="286.8" y="380.5"/></g></g></g></g><g id="_x31_1_crm"/><g id="_x31_0_summary"/><g id="_x30_9_lion"/><g id="_x30_8_magazine"/><g id="_x30_7_preview"/><g id="_x30_6_administrator"/><g id="_x30_5_sign_up"/><g id="_x30_4_story"/><g id="_x30_3_left_arrow"/><g id="_x30_2_linux"/><g id="_x30_1_jpg"/></svg>