<?xml version="1.0" ?><svg id="Layer_1" style="enable-background:new 0 0 44 44;" version="1.1" viewBox="0 0 44 44" xml:space="preserve" xmlns="http://www.w3.org/2000/svg" xmlns:xlink="http://www.w3.org/1999/xlink"><style type="text/css">
	.st0{fill:#148CEF;}
	.st1{fill:#D6D9DE;}
	.st2{fill:#67B7F9;}
	.st3{fill:#FFFFFF;}
	.st4{fill:none;}
</style><g><rect class="st0" height="13.5" width="5.76" x="6.49" y="2.36"/><polygon class="st1" points="39.97,43.5 4.03,43.5 4.03,17.1 22,4.35 39.97,17.1  "/><path class="st2" d="M41.26,20.72c-0.46,0-0.93-0.14-1.33-0.44L22,6.06L4.07,20.28c-0.99,0.73-2.4,0.52-3.13-0.47   c-0.73-1-0.52-2.4,0.47-3.13L22,0.5l20.59,16.18c1,0.73,1.21,2.14,0.47,3.13C42.62,20.41,41.95,20.72,41.26,20.72z"/><circle class="st3" cx="22" cy="15.86" r="3.72"/><rect class="st3" height="15.79" width="9.28" x="8.17" y="27.71"/><path class="st3" d="M24.26,29.71L24.26,29.71c-1.63,0-2.95,1.32-2.95,2.95v7.09h5.9v-7.09C27.21,31.03,25.89,29.71,24.26,29.71z"/><path class="st3" d="M33.59,29.71c-1.63,0-2.95,1.32-2.95,2.95v7.09h5.9v-7.09C36.54,31.03,35.22,29.71,33.59,29.71z"/><circle class="st0" cx="15.36" cy="35.6" r="0.95"/><rect class="st2" height="1.24" width="7.12" x="20.7" y="38.84"/><rect class="st2" height="1.24" width="7.12" x="30.03" y="38.84"/></g></svg>