<?xml version="1.0" ?><svg id="Layer_1" style="enable-background:new 0 0 64 64;" version="1.1" viewBox="0 0 64 64" xml:space="preserve" xmlns="http://www.w3.org/2000/svg" xmlns:xlink="http://www.w3.org/1999/xlink"><style type="text/css">
	.st0{fill:#D9DCE1;}
	.st1{fill:#FFFFFF;}
	.st2{fill:#56AAFF;}
	.st3{fill:#0478ED;}
	.st4{fill:none;stroke:#0478ED;stroke-width:2;stroke-linecap:square;stroke-miterlimit:10;}
	.st5{fill:none;stroke:#D9DCE1;stroke-width:2;stroke-linecap:round;stroke-miterlimit:10;}
	.st6{fill:none;stroke:#FFFFFF;stroke-width:3;stroke-linecap:round;stroke-linejoin:round;stroke-miterlimit:10;}
	.st7{fill-rule:evenodd;clip-rule:evenodd;fill:#0478ED;}
	.st8{fill:none;stroke:#FFFFFF;stroke-width:5;stroke-linecap:square;stroke-miterlimit:10;}
	.st9{fill:none;stroke:#0478ED;stroke-width:3;stroke-linecap:square;stroke-miterlimit:10;}
	.st10{fill:none;stroke:#0478ED;stroke-width:3;stroke-miterlimit:10;}
	.st11{fill:none;stroke:#D9DCE1;stroke-width:4;stroke-miterlimit:10;}
	.st12{fill:none;stroke:#D9DCE1;stroke-width:2;stroke-miterlimit:10;}
	.st13{fill:none;stroke:#56AAFF;stroke-width:3;stroke-linecap:round;stroke-miterlimit:10;}
	.st14{fill:none;stroke:#56AAFF;stroke-width:4;stroke-linecap:round;stroke-miterlimit:10;}
	.st15{fill:none;stroke:#D9DCE1;stroke-width:3;stroke-miterlimit:10;}
	.st16{fill:none;stroke:#56AAFF;stroke-width:2;stroke-linecap:round;stroke-miterlimit:10;}
	.st17{fill:none;stroke:#0478ED;stroke-width:3;stroke-linecap:round;stroke-miterlimit:10;}
	.st18{fill:none;stroke:#56AAFF;stroke-linecap:round;stroke-miterlimit:10;}
	.st19{fill:none;stroke:#0478ED;stroke-width:2;stroke-linecap:round;stroke-miterlimit:10;}
	.st20{fill:none;stroke:#D9DCE1;stroke-width:12.605;stroke-linecap:round;stroke-miterlimit:10;}
	.st21{fill:none;stroke:#FFFFFF;stroke-width:2;stroke-linecap:round;stroke-linejoin:round;stroke-miterlimit:10;}
	.st22{fill:none;stroke:#FFFFFF;stroke-width:2;stroke-linecap:square;stroke-miterlimit:10;}
	.st23{fill:none;stroke:#FFFFFF;stroke-width:4;stroke-linecap:round;stroke-linejoin:round;stroke-miterlimit:10;}
	.st24{fill:none;stroke:#FFFFFF;stroke-width:2;stroke-miterlimit:10;}
	.st25{fill-rule:evenodd;clip-rule:evenodd;fill:#56AAFF;}
	.st26{fill:none;stroke:#0478ED;stroke-width:4;stroke-linecap:round;stroke-miterlimit:10;}
	.st27{fill:none;stroke:#0478ED;stroke-width:2;stroke-miterlimit:10;stroke-dasharray:2,2;}
</style><path class="st0" d="M45,52v-9.3c0-2.9-1.6-5.6-4.1-7l-4-2.2C36.3,33.2,36,32.6,36,32c0-0.6,0.3-1.2,0.9-1.5l4-2.2  c2.5-1.4,4.1-4.1,4.1-7V12c1.1,0,2-0.9,2-2c0-1.1-0.9-2-2-2H19c-1.1,0-2,0.9-2,2c0,1.1,0.9,2,2,2v9.3c0,2.9,1.6,5.6,4.1,7l4,2.2  c0.5,0.3,0.9,0.9,0.9,1.5c0,0.6-0.3,1.2-0.9,1.5l-4,2.2c-2.5,1.4-4.1,4.1-4.1,7V52c-1.1,0-2,0.9-2,2c0,1.1,0.9,2,2,2h26  c1.1,0,2-0.9,2-2C47,52.9,46.1,52,45,52z"/><path class="st2" d="M19,52c-1.1,0-2,0.9-2,2c0,1.1,0.9,2,2,2h26c1.1,0,2-0.9,2-2c0-1.1-0.9-2-2-2"/><path class="st2" d="M45,12c1.1,0,2-0.9,2-2c0-1.1-0.9-2-2-2H19c-1.1,0-2,0.9-2,2c0,1.1,0.9,2,2,2"/><path class="st1" d="M22,48v4h20v-4c0-0.8-0.4-1.6-1.1-2c-7.5-4.8-10.2-4.8-17.7,0C22.4,46.4,22,47.2,22,48z"/><path class="st1" d="M24.6,25.7l1.9,1.1C31,29,33,29,37.5,26.7l1.9-1.1c1.6-0.9,2.6-2.6,2.6-4.4V20H22v1.3  C22,23.1,23,24.8,24.6,25.7z"/><circle class="st1" cx="32" cy="33" r="1"/><circle class="st1" cx="32" cy="38" r="1"/></svg>