<?xml version="1.0" ?><svg enable-background="new 0 0 500 500" version="1.1" viewBox="0 0 500 500" xml:space="preserve" xmlns="http://www.w3.org/2000/svg" xmlns:xlink="http://www.w3.org/1999/xlink"><g id="Layer_2"><g><path d="    M373.506,457h-252.13c-12.312,0-22.292-9.98-22.292-22.292V92.576c0-12.312,9.98-22.292,22.292-22.292h252.13    c12.311,0,22.292,9.98,22.292,22.292v342.132C395.798,447.02,385.818,457,373.506,457z" fill="#EAEFF4" stroke="#A6C5E4" stroke-linecap="round" stroke-linejoin="round" stroke-miterlimit="10" stroke-width="15"/><circle cx="247.441" cy="49.102" fill="none" r="21.182" stroke="#A6C5E4" stroke-linecap="round" stroke-linejoin="round" stroke-miterlimit="10" stroke-width="15"/><rect fill="#FFFFFF" height="307.5" stroke="#3EB2FC" stroke-linecap="round" stroke-linejoin="round" stroke-miterlimit="10" stroke-width="15" width="214.356" x="140.263" y="107.263"/><path d="    M306.988,114.894H187.894c-6.975,0-12.63-5.655-12.63-12.63v-31.98h144.354v31.98C319.619,109.24,313.964,114.894,306.988,114.894    z" fill="#FFFFFF" stroke="#A6C5E4" stroke-linecap="round" stroke-linejoin="round" stroke-miterlimit="10" stroke-width="15"/><line fill="none" stroke="#A6C5E4" stroke-linecap="round" stroke-linejoin="round" stroke-miterlimit="10" stroke-width="15" x1="245" x2="310" y1="195.5" y2="195.5"/><line fill="none" stroke="#A6C5E4" stroke-linecap="round" stroke-linejoin="round" stroke-miterlimit="10" stroke-width="15" x1="245" x2="310" y1="259.5" y2="259.5"/><line fill="none" stroke="#A6C5E4" stroke-linecap="round" stroke-linejoin="round" stroke-miterlimit="10" stroke-width="15" x1="245" x2="310" y1="323.5" y2="323.5"/><polyline fill="none" points="    186.648,195.931 194.233,204.445 211.825,184.699   " stroke="#3685F0" stroke-linecap="round" stroke-linejoin="round" stroke-miterlimit="10" stroke-width="15"/><polyline fill="none" points="    186.648,260.264 194.233,268.778 211.825,249.033   " stroke="#3685F0" stroke-linecap="round" stroke-linejoin="round" stroke-miterlimit="10" stroke-width="15"/><polyline fill="none" points="    186.648,324.598 194.233,333.112 211.825,313.366   " stroke="#3685F0" stroke-linecap="round" stroke-linejoin="round" stroke-miterlimit="10" stroke-width="15"/></g></g><g id="Layer_1"/></svg>