<?xml version="1.0" ?><svg id="Layer_3" style="enable-background:new 0 0 64 64;" version="1.1" viewBox="0 0 64 64" xml:space="preserve" xmlns="http://www.w3.org/2000/svg" xmlns:xlink="http://www.w3.org/1999/xlink"><g><rect height="30" style="fill:#7DBFE9;" width="30" x="2" y="32"/><path d="M4,55c0,2.209,1.791,4,4,4h24V32H4V55z" style="fill:#8FD6FB;"/><path d="M21,40h-8c-1.105,0-2-0.895-2-2v0c0-1.105,0.895-2,2-2h8c1.105,0,2,0.895,2,2v0   C23,39.105,22.105,40,21,40z" style="fill:#FFFFFF;"/><rect height="30" style="fill:#7DBFE9;" width="30" x="32" y="32"/><path d="M34,55c0,2.209,1.791,4,4,4h24V32H34V55z" style="fill:#8FD6FB;"/><path d="M51,40h-8c-1.105,0-2-0.895-2-2v0c0-1.105,0.895-2,2-2h8c1.105,0,2,0.895,2,2v0   C53,39.105,52.105,40,51,40z" style="fill:#FFFFFF;"/><rect height="30" style="fill:#7DBFE9;" width="30" x="17" y="2"/><path d="M19,25c0,2.209,1.791,4,4,4h24V2H19V25z" style="fill:#8FD6FB;"/><path d="M36,10h-8c-1.105,0-2-0.895-2-2v0c0-1.105,0.895-2,2-2h8c1.105,0,2,0.895,2,2v0   C38,9.105,37.105,10,36,10z" style="fill:#FFFFFF;"/><g><path d="M43,41h8c1.654,0,3-1.346,3-3s-1.346-3-3-3h-8c-1.654,0-3,1.346-3,3S41.346,41,43,41z M43,37h8c0.551,0,1,0.448,1,1    s-0.449,1-1,1h-8c-0.551,0-1-0.448-1-1S42.449,37,43,37z"/><path d="M28,11h8c1.654,0,3-1.346,3-3s-1.346-3-3-3h-8c-1.654,0-3,1.346-3,3S26.346,11,28,11z M28,7h8c0.551,0,1,0.448,1,1    s-0.449,1-1,1h-8c-0.551,0-1-0.448-1-1S27.449,7,28,7z"/><path d="M62,31H48V2c0-0.553-0.448-1-1-1H17c-0.552,0-1,0.447-1,1v29H2c-0.552,0-1,0.447-1,1v30c0,0.553,0.448,1,1,1h60    c0.552,0,1-0.447,1-1V32C63,31.447,62.552,31,62,31z M36.414,31l-3-3L37,24.414L40.586,28l-3,3H36.414z M32,26.586L28.414,23    L32,19.414L35.586,23L32,26.586z M38.414,23L42,19.414L45.586,23L42,26.586L38.414,23z M42,29.414L43.586,31h-3.172L42,29.414z     M43.414,28L46,25.414v5.172L43.414,28z M43.414,18L46,15.414v5.172L43.414,18z M42,16.586L40.414,15h3.172L42,16.586z M37.586,15    l3,3L37,21.586L33.414,18l3-3H37.586z M32,16.586L30.414,15h3.172L32,16.586z M27.586,15l3,3L27,21.586L23.414,18l3-3H27.586z     M25.586,23L22,26.586L18.414,23L22,19.414L25.586,23z M22,16.586L20.414,15h3.172L22,16.586z M20.586,18L18,20.586v-5.172    L20.586,18z M20.586,28L18,30.586v-5.172L20.586,28z M22,29.414L23.586,31h-3.172L22,29.414z M26.414,31l-3-3L27,24.414L30.586,28    l-3,3H26.414z M32,29.414L33.586,31h-3.172L32,29.414z M52.586,45l3,3L52,51.586L48.414,48l3-3H52.586z M55.414,45h3.172    L57,46.586L55.414,45z M57,49.414L60.586,53L57,56.586L53.414,53L57,49.414z M50.586,53L47,56.586L43.414,53L47,49.414L50.586,53z     M47,46.586L45.414,45h3.172L47,46.586z M42.586,45l3,3L42,51.586L38.414,48l3-3H42.586z M33,45.414L35.586,48L33,50.586V45.414z     M31,50.586L28.414,48L31,45.414V50.586z M30.586,53L27,56.586L23.414,53L27,49.414L30.586,53z M31,55.414v5.172L28.414,58    L31,55.414z M33.414,53L37,49.414L40.586,53L37,56.586L33.414,53z M35.586,58L33,60.586v-5.172L35.586,58z M37,46.586L35.414,45    h3.172L37,46.586z M27,46.586L25.414,45h3.172L27,46.586z M22.586,45l3,3L22,51.586L18.414,48l3-3H22.586z M20.586,53L17,56.586    L13.414,53L17,49.414L20.586,53z M17,46.586L15.414,45h3.172L17,46.586z M12.586,45l3,3L12,51.586L8.414,48l3-3H12.586z     M10.586,53L7,56.586L3.414,53L7,49.414L10.586,53z M7,46.586L5.414,45h3.172L7,46.586z M5.586,48L3,50.586v-5.172L5.586,48z     M5.586,58L3,60.586v-5.172L5.586,58z M7,59.414L8.586,61H5.414L7,59.414z M8.414,58L12,54.414L15.586,58l-3,3h-1.172L8.414,58z     M17,59.414L18.586,61h-3.172L17,59.414z M18.414,58L22,54.414L25.586,58l-3,3h-1.172L18.414,58z M27,59.414L28.586,61h-3.172    L27,59.414z M37,59.414L38.586,61h-3.172L37,59.414z M38.414,58L42,54.414L45.586,58l-3,3h-1.172L38.414,58z M47,59.414L48.586,61    h-3.172L47,59.414z M48.414,58L52,54.414L55.586,58l-3,3h-1.172L48.414,58z M57,59.414L58.586,61h-3.172L57,59.414z M58.414,58    L61,55.414v5.172L58.414,58z M58.414,48L61,45.414v5.172L58.414,48z M61,43H33V33h28V43z M46,3v10H18V3H46z M31,33v10H3V33H31z"/><path d="M13,41h8c1.654,0,3-1.346,3-3s-1.346-3-3-3h-8c-1.654,0-3,1.346-3,3S11.346,41,13,41z M13,37h8c0.551,0,1,0.448,1,1    s-0.449,1-1,1h-8c-0.551,0-1-0.448-1-1S12.449,37,13,37z"/></g></g></svg>