<?xml version="1.0" ?><svg id="Layer_2" style="enable-background:new 0 0 64 64;" version="1.1" viewBox="0 0 64 64" xml:space="preserve" xmlns="http://www.w3.org/2000/svg" xmlns:xlink="http://www.w3.org/1999/xlink"><style type="text/css">
	.st0{fill:#56AAFF;}
	.st1{fill:#D9DCE1;}
	.st2{fill:#0478ED;}
	.st3{fill:#FFFFFF;}
	.st4{fill:none;stroke:#FFFFFF;stroke-width:2;stroke-miterlimit:10;}
	.st5{fill:none;stroke:#D9DCE1;stroke-width:2;stroke-miterlimit:10;}
	.st6{fill:none;stroke:#D9DCE1;stroke-width:6;stroke-linecap:square;stroke-miterlimit:10;}
	.st7{fill:none;stroke:#56AAFF;stroke-width:10;stroke-linecap:square;stroke-miterlimit:10;}
	.st8{fill-rule:evenodd;clip-rule:evenodd;fill:#0478ED;}
	.st9{fill:#FEFEFE;}
	.st10{fill:none;stroke:#FFFFFF;stroke-width:2;stroke-linecap:round;stroke-linejoin:round;stroke-miterlimit:10;}
	.st11{fill:none;stroke:#D9DCE1;stroke-width:3;stroke-linecap:round;stroke-linejoin:round;stroke-miterlimit:10;}
	.st12{fill:none;stroke:#FFFFFF;stroke-width:4;stroke-linecap:square;stroke-miterlimit:10;}
	.st13{fill:none;stroke:#56AAFF;stroke-width:6;stroke-linecap:round;stroke-linejoin:round;stroke-miterlimit:10;}
	.st14{fill:none;stroke:#FFFFFF;stroke-width:5;stroke-linecap:square;stroke-miterlimit:10;}
	.st15{fill:none;stroke:#FFFFFF;stroke-width:1.5;stroke-miterlimit:10;}
	.st16{fill:none;stroke:#56AAFF;stroke-width:4;stroke-linecap:round;stroke-linejoin:round;stroke-miterlimit:10;}
	.st17{fill:none;stroke:#D9DCE1;stroke-width:6;stroke-linecap:round;stroke-linejoin:round;stroke-miterlimit:10;}
	.st18{fill:none;stroke:#FFFFFF;stroke-width:4;stroke-linecap:round;stroke-linejoin:round;stroke-miterlimit:10;}
	.st19{fill:none;stroke:#0478ED;stroke-width:2;stroke-miterlimit:10;}
	.st20{fill:none;stroke:#D9DCE1;stroke-width:3;stroke-miterlimit:10;}
	.st21{fill:none;stroke:#FFFFFF;stroke-width:3;stroke-miterlimit:10;}
	.st22{fill:#D9DADD;}
	.st23{fill:none;stroke:#D9DCE1;stroke-width:4;stroke-miterlimit:10;}
	.st24{fill:none;stroke:#FFFFFF;stroke-width:4;stroke-miterlimit:10;}
	.st25{fill:none;stroke:#D9DCE1;stroke-width:8;stroke-miterlimit:10;}
	.st26{fill:none;stroke:#FFFFFF;stroke-width:2;stroke-linejoin:bevel;stroke-miterlimit:10;}
	.st27{fill:none;stroke:#56AAFF;stroke-width:5;stroke-miterlimit:10;}
	.st28{fill:none;stroke:#0478ED;stroke-width:3;stroke-miterlimit:10;}
	.st29{fill:none;stroke:#D9DCE1;stroke-width:3;stroke-linecap:square;stroke-miterlimit:10;}
	.st30{fill:none;stroke:#D9DCE1;stroke-width:2;stroke-linecap:round;stroke-miterlimit:10;}
	.st31{fill:none;stroke:#D9DCE1;stroke-width:2;stroke-linecap:round;stroke-miterlimit:10;stroke-dasharray:9.002770e-02,3.6011;}
	.st32{fill:none;stroke:#D9DCE1;stroke-width:2;stroke-linecap:round;stroke-miterlimit:10;stroke-dasharray:0.1152,4.606;}
	.st33{fill:none;stroke:#D9DCE1;stroke-width:2;stroke-linecap:round;stroke-miterlimit:10;stroke-dasharray:9.058228e-02,3.6233;}
	.st34{fill:none;stroke:#D9DCE1;stroke-width:2;stroke-linecap:round;stroke-miterlimit:10;stroke-dasharray:8.905454e-02,3.5622;}
	.st35{fill:none;stroke:#D9DCE1;stroke-width:2;stroke-linecap:round;stroke-miterlimit:10;stroke-dasharray:9.102297e-02,3.6409;}
	.st36{fill:none;stroke:#D9DCE1;stroke-width:2;stroke-linecap:round;stroke-miterlimit:10;stroke-dasharray:9.122662e-02,3.6491;}
	.st37{fill:none;stroke:#D9DCE1;stroke-width:2;stroke-linecap:round;stroke-miterlimit:10;stroke-dasharray:6.419753e-02,2.5679;}
	.st38{fill:none;stroke:#D9DCE1;stroke-width:2;stroke-linecap:round;stroke-miterlimit:10;stroke-dasharray:6.666666e-02,2.6667;}
	.st39{fill:none;stroke:#D9DCE1;stroke-width:2;stroke-linecap:round;stroke-miterlimit:10;stroke-dasharray:6.335912e-02,2.5344;}
	.st40{fill:none;stroke:#D9DCE1;stroke-width:2;stroke-linecap:round;stroke-miterlimit:10;stroke-dasharray:6.514134e-02,2.6057;}
	.st41{fill:none;stroke:#D9DCE1;stroke-width:2;stroke-linecap:round;stroke-miterlimit:10;stroke-dasharray:6.387379e-02,2.555;}
	.st42{fill:none;stroke:#D9DCE1;stroke-width:2;stroke-linecap:round;stroke-miterlimit:10;stroke-dasharray:6.425033e-02,2.57;}
	.st43{fill:none;stroke:#0478ED;stroke-width:4;stroke-miterlimit:10;}
	.st44{fill:none;stroke:#0478ED;stroke-width:8;stroke-linecap:square;stroke-miterlimit:10;}
	.st45{fill:none;stroke:#56AAFF;stroke-width:2;stroke-miterlimit:10;}
	.st46{fill:none;stroke:#56AAFF;stroke-width:3;stroke-miterlimit:10;}
	.st47{fill-rule:evenodd;clip-rule:evenodd;fill:#56AAFF;}
	.st48{fill:none;stroke:#0478ED;stroke-width:1.5;stroke-miterlimit:10;}
	.st49{fill:none;stroke:#FFFFFF;stroke-width:2;stroke-linecap:square;stroke-miterlimit:10;}
	.st50{fill:none;stroke:#D9DCE1;stroke-width:2;stroke-linecap:square;stroke-miterlimit:10;}
	.st51{fill:none;stroke:#0478ED;stroke-width:2;stroke-linecap:square;stroke-miterlimit:10;}
	.st52{fill:none;stroke:#56AAFF;stroke-width:2;stroke-linecap:round;stroke-miterlimit:10;}
	.st53{fill:none;stroke:#56AAFF;stroke-width:8;stroke-linecap:square;stroke-miterlimit:10;}
	.st54{fill:none;stroke:#D9DCE1;stroke-width:5;stroke-linecap:square;stroke-miterlimit:10;}
	.st55{fill:none;stroke:#0478ED;stroke-width:4;stroke-linecap:round;stroke-linejoin:round;stroke-miterlimit:10;}
	.st56{fill:none;stroke:#FFFFFF;stroke-width:3;stroke-linecap:square;stroke-miterlimit:10;}
	.st57{fill:none;stroke:#56AAFF;stroke-width:3;stroke-linecap:square;stroke-miterlimit:10;}
	.st58{fill:none;stroke:#56AAFF;stroke-width:4;stroke-linecap:square;stroke-miterlimit:10;}
	.st59{fill:none;stroke:#56AAFF;stroke-width:2;stroke-linecap:square;stroke-miterlimit:10;}
	.st60{fill-rule:evenodd;clip-rule:evenodd;fill:none;stroke:#0478ED;stroke-width:3;stroke-miterlimit:10;}
	.st61{fill-rule:evenodd;clip-rule:evenodd;fill:#D9DCE1;}
	
		.st62{fill-rule:evenodd;clip-rule:evenodd;fill:none;stroke:#56AAFF;stroke-width:3;stroke-linecap:round;stroke-linejoin:round;stroke-miterlimit:10;}
	.st63{fill-rule:evenodd;clip-rule:evenodd;fill:#FFFFFF;}
	.st64{fill:none;stroke:#D9DCE1;stroke-width:6;stroke-linecap:round;stroke-miterlimit:10;}
	.st65{fill:none;stroke:#0478ED;stroke-width:2;stroke-miterlimit:10;stroke-dasharray:2,2;}
</style><path class="st61" d="M43,21h-3.8c-0.3-1.5-0.9-2.9-1.7-4.2l2.7-2.7c0.4-0.4,0.4-1,0-1.4l-2.8-2.8c-0.4-0.4-1-0.4-1.4,0l-2.7,2.7  c-1.3-0.8-2.7-1.4-4.2-1.7V7c0-0.6-0.4-1-1-1h-4c-0.6,0-1,0.4-1,1v3.8c-1.5,0.3-2.9,0.9-4.2,1.7l-2.7-2.7c-0.4-0.4-1-0.4-1.4,0  l-2.8,2.8c-0.4,0.4-0.4,1,0,1.4l2.7,2.7c-0.8,1.3-1.4,2.7-1.7,4.2H9c-0.6,0-1,0.4-1,1v4c0,0.6,0.4,1,1,1h3.8  c0.3,1.5,0.9,2.9,1.7,4.2l-2.7,2.7c-0.4,0.4-0.4,1,0,1.4l2.8,2.8c0.4,0.4,1,0.4,1.4,0l2.7-2.7c1.3,0.8,2.7,1.4,4.2,1.7V41  c0,0.6,0.4,1,1,1h4c0.6,0,1-0.4,1-1v-3.8c1.5-0.3,2.9-0.9,4.2-1.7l2.7,2.7c0.4,0.4,1,0.4,1.4,0l2.8-2.8c0.4-0.4,0.4-1,0-1.4  l-2.7-2.7c0.8-1.3,1.4-2.7,1.7-4.2H43c0.6,0,1-0.4,1-1v-4C44,21.4,43.5,21,43,21z M26,29.7c-3.2,0-5.7-2.6-5.7-5.7s2.6-5.7,5.7-5.7  s5.7,2.6,5.7,5.7S29.1,29.7,26,29.7z"/><path class="st47" d="M52.5,47c0-0.5-0.1-1-0.1-1.6l2.9-2c0.2-0.1,0.3-0.4,0.1-0.7l-2-3.5C53.2,39,53,38.9,52.7,39l-3.2,1.5  c-0.8-0.7-1.7-1.2-2.7-1.5l-0.3-3.5c0-0.3-0.2-0.5-0.5-0.5H42c-0.3,0-0.5,0.2-0.5,0.5L41.2,39c-1,0.4-1.9,0.9-2.7,1.5L35.3,39  c-0.2-0.1-0.5,0-0.6,0.2l-2,3.5c-0.1,0.2-0.1,0.5,0.1,0.7l2.9,2c-0.1,0.5-0.1,1-0.1,1.6s0.1,1,0.1,1.6l-2.9,2  c-0.2,0.1-0.3,0.4-0.1,0.7l2,3.5c0.1,0.2,0.4,0.3,0.6,0.2l3.2-1.5c0.8,0.7,1.7,1.2,2.7,1.5l0.3,3.5c0,0.3,0.2,0.5,0.5,0.5H46  c0.3,0,0.5-0.2,0.5-0.5l0.3-3.5c1-0.4,1.9-0.9,2.7-1.5l3.2,1.5c0.2,0.1,0.5,0,0.6-0.2l2-3.5c0.1-0.2,0.1-0.5-0.1-0.7l-2.9-2  C52.4,48,52.5,47.5,52.5,47z M44,51c-2.2,0-4-1.8-4-4s1.8-4,4-4s4,1.8,4,4S46.2,51,44,51z"/></svg>