<?xml version="1.0" ?><svg id="Layer_1" style="enable-background:new 0 0 64 64;" version="1.1" viewBox="0 0 64 64" xml:space="preserve" xmlns="http://www.w3.org/2000/svg" xmlns:xlink="http://www.w3.org/1999/xlink"><style type="text/css">
	.st0{fill:#D9DCE1;}
	.st1{fill:#56AAFF;}
	.st2{fill:#0478ED;}
	.st3{fill:none;stroke:#FFFFFF;stroke-width:4;stroke-linecap:round;stroke-linejoin:round;stroke-miterlimit:10;}
	.st4{fill:#FFFFFF;}
	.st5{fill:none;stroke:#FFFFFF;stroke-width:2.2357;stroke-linecap:square;stroke-miterlimit:10;}
	.st6{fill:none;stroke:#0478ED;stroke-width:2;stroke-miterlimit:10;stroke-dasharray:2,2;}
	.st7{fill:none;stroke:#56AAFF;stroke-width:5;stroke-miterlimit:10;}
	.st8{fill:none;stroke:#0478ED;stroke-width:3;stroke-miterlimit:10;}
	.st9{fill:none;stroke:#D9DCE1;stroke-width:3;stroke-miterlimit:10;}
	.st10{fill:none;stroke:#56AAFF;stroke-width:4;stroke-linecap:round;stroke-miterlimit:10;}
	.st11{fill:none;stroke:#0478ED;stroke-width:4;stroke-miterlimit:10;}
	.st12{fill:none;stroke:#FFFFFF;stroke-width:2;stroke-miterlimit:10;}
	.st13{fill:none;stroke:#D9DCE1;stroke-width:4;stroke-miterlimit:10;}
	.st14{fill:none;stroke:#D9DCE1;stroke-width:6;stroke-linecap:round;stroke-miterlimit:10;}
	.st15{fill:none;stroke:#D9DCE1;stroke-width:2;stroke-miterlimit:10;}
	.st16{fill:none;stroke:#56AAFF;stroke-width:9.9179;stroke-linecap:round;stroke-miterlimit:10;}
	.st17{fill-rule:evenodd;clip-rule:evenodd;fill:#56AAFF;}
	.st18{fill-rule:evenodd;clip-rule:evenodd;fill:#D9DCE1;}
	.st19{fill-rule:evenodd;clip-rule:evenodd;fill:#0478ED;}
	.st20{fill:none;stroke:#FFFFFF;stroke-width:4;stroke-miterlimit:10;}
	.st21{fill:none;stroke:#0478ED;stroke-width:2;stroke-miterlimit:10;}
	.st22{fill:none;stroke:#FFFFFF;stroke-width:2;stroke-linecap:square;stroke-miterlimit:10;}
	.st23{fill:#FEFEFE;}
	.st24{fill:none;stroke:#FFFFFF;stroke-width:2;stroke-linecap:round;stroke-linejoin:round;stroke-miterlimit:10;}
	.st25{fill:none;stroke:#D9DCE1;stroke-width:3;stroke-linecap:round;stroke-linejoin:round;stroke-miterlimit:10;}
	.st26{fill:none;stroke:#56AAFF;stroke-width:4;stroke-linecap:square;stroke-miterlimit:10;}
	.st27{fill:none;stroke:#56AAFF;stroke-width:4;stroke-miterlimit:10;}
	.st28{fill:none;stroke:#0478ED;stroke-width:2;stroke-linecap:square;stroke-miterlimit:10;}
	.st29{fill:none;stroke:#FFFFFF;stroke-width:3;stroke-miterlimit:10;}
	.st30{fill:none;stroke:#FFFFFF;stroke-width:4;stroke-linecap:round;stroke-miterlimit:10;}
	.st31{fill:none;stroke:#56AAFF;stroke-width:4;stroke-linejoin:round;stroke-miterlimit:10;}
	.st32{fill:none;stroke:#0478ED;stroke-width:2.8187;stroke-miterlimit:10;}
	.st33{fill:none;stroke:#0478ED;stroke-width:2;stroke-linecap:round;stroke-miterlimit:10;}
	.st34{fill:none;stroke:#FFFFFF;stroke-width:2;stroke-linecap:round;stroke-miterlimit:10;}
	.st35{fill:none;stroke:#FFFFFF;stroke-width:6;stroke-linecap:round;stroke-miterlimit:10;}
	.st36{fill:none;stroke:#D9DCE1;stroke-width:4;stroke-linecap:round;stroke-miterlimit:10;}
	.st37{fill:none;stroke:#FFFFFF;stroke-width:2;stroke-miterlimit:10;stroke-dasharray:4.0841,4.0841;}
	.st38{fill:none;stroke:#FFFFFF;stroke-width:2;stroke-miterlimit:10;stroke-dasharray:2;}
	.st39{fill:none;stroke:#D9DCE1;stroke-width:4;stroke-linecap:round;stroke-linejoin:round;stroke-miterlimit:10;}
	.st40{fill:none;stroke:#56AAFF;stroke-width:6;stroke-linecap:round;stroke-linejoin:round;stroke-miterlimit:10;}
	.st41{fill:none;stroke:#FFFFFF;stroke-width:2;stroke-miterlimit:10;stroke-dasharray:8,5;}
	.st42{fill:none;stroke:#56AAFF;stroke-width:3;stroke-miterlimit:10;}
	.st43{fill:none;stroke:#FFFFFF;stroke-width:2;stroke-miterlimit:10;stroke-dasharray:7.5556,4.7222;}
	.st44{fill:none;stroke:#56AAFF;stroke-width:2;stroke-miterlimit:10;}
	.st45{fill:none;stroke:#D9DCE1;stroke-width:10.4595;stroke-linecap:square;stroke-miterlimit:10;}
	.st46{fill:none;stroke:#56AAFF;stroke-width:10.4595;stroke-linecap:square;stroke-miterlimit:10;}
	.st47{fill:none;stroke:#56AAFF;stroke-width:2;stroke-linecap:square;stroke-miterlimit:10;}
	.st48{fill:none;stroke:#D9DCE1;stroke-width:10.7485;stroke-linecap:round;stroke-miterlimit:10;}
	.st49{fill:none;stroke:#0478ED;stroke-width:3.587;stroke-miterlimit:10;}
	.st50{fill:none;stroke:#D9DCE1;stroke-width:3.587;stroke-miterlimit:10;}
	.st51{fill:none;stroke:#0478ED;stroke-width:2.5;stroke-miterlimit:10;}
	.st52{fill:none;stroke:#56AAFF;stroke-width:4;stroke-linecap:round;stroke-linejoin:round;stroke-miterlimit:10;}
	.st53{fill:none;stroke:#D9DCE1;stroke-width:2.852;stroke-miterlimit:10;}
	.st54{fill:none;stroke:#D9DCE1;stroke-width:12.5873;stroke-linecap:round;stroke-miterlimit:10;}
	.st55{fill:none;stroke:#56AAFF;stroke-width:2;stroke-linecap:round;stroke-miterlimit:10;}
	.st56{fill:none;stroke:#D9DCE1;stroke-width:2;stroke-linecap:square;stroke-miterlimit:10;}
	.st57{fill:none;stroke:#D9DCE1;stroke-width:3;stroke-linecap:round;stroke-miterlimit:10;}
</style><path class="st1" d="M34.5,23.5l-1-2.9L37,11H19.7l3.4,9.7L23.1,23c-6.6,3.7-11.4,14-11.4,23.1c0,9.2,7.5,10.9,16.7,10.9  S45,55.3,45,46.1C45,37.4,40.6,27.6,34.5,23.5z"/><path class="st2" d="M34.9,20H22.1c-0.6,0-1.1,0.5-1.1,1.1v0.9c0,0.6,0.5,1.1,1.1,1.1h12.9c0.6,0,1.1-0.5,1.1-1.1v-0.9  C36,20.5,35.5,20,34.9,20z"/><g><g><line class="st9" x1="40" x2="49.5" y1="16.5" y2="16.5"/><g><polygon class="st0" points="48.2,21 56,16.5 48.2,12    "/></g></g></g><g><g><line class="st9" x1="56" x2="46.5" y1="25.5" y2="25.5"/><g><polygon class="st0" points="47.8,21 40,25.5 47.8,30    "/></g></g></g><g><g><path class="st4" d="M29.5,48v2.7h-1.8V48c-2-0.2-3.4-0.9-4.6-2.1l1.7-2c1.1,1.1,2.5,1.6,3.6,1.6c1,0,1.7-0.5,1.7-1.3    c0-0.9-0.7-1.3-2.3-1.8c-2.3-0.7-4.3-1.5-4.3-4.1c0-2.1,1.4-3.6,4.3-3.9v-2.2h1.8v2.3c1,0.3,2.3,0.9,3.2,1.6l-1.6,2    c-1.1-0.8-2.2-1.1-3.1-1.1c-1,0-1.6,0.4-1.6,1.2c0,0.8,0.7,1.1,2.2,1.6c2.7,0.8,4.5,1.5,4.5,4.2C33,46.2,31.6,47.7,29.5,48z"/></g></g></svg>